<svg xmlns="http://www.w3.org/2000/svg" width="24" height="24" viewBox="0 0 24 24">
  <g fill="none" fill-rule="evenodd">
    <rect width="18" height="16" x="3" y="5" stroke="#333" rx="2"/>
    <rect width="2" height="4" x="7" y="3" fill="#333" rx="1"/>
    <rect width="2" height="4" x="15" y="3" fill="#333" rx="1"/>
    <rect width="18" height="1" x="3" y="9" fill="#333"/>
    <path fill="#333" d="M11.1955936,15.7174213 L9.41195725,13.6862231 C9.10885241,13.3684177 8.60872053,13.3461957 8.27857144,13.6358641 C7.94842234,13.9255325 7.90590951,14.4238638 8.18222997,14.7651695 L10.5361391,17.4429181 C10.6834118,17.6121165 10.8953209,17.7126547 11.1195027,17.7208285 L11.1505936,17.7216459 C11.3639742,17.7216245 11.568904,17.6383247 11.7216845,17.489509 L15.91323,13.402591 C16.1225227,13.1987589 16.2070678,12.8988629 16.135018,12.615871 C16.0629682,12.332879 15.8452695,12.1097842 15.563927,12.0306243 C15.2825846,11.9514644 14.9803408,12.0282656 14.7710482,12.2320977 L11.1955936,15.7174213 Z"/>
  </g>
</svg>
