<svg xmlns="http://www.w3.org/2000/svg" width="24" height="24" viewBox="0 0 24 24">
  <g fill="none" fill-rule="evenodd">
    <path stroke="#333" d="M20.4034179,9.79803211 C20.953392,9.4344899 21,9.10823408 21,8.62351113 L21,5.70585189 C21,4.76437079 20.2356292,4 19.2941481,4 L4.71517349,4 C3.77369239,4 3.0093216,4.76437079 3.0093216,5.70585189 L3.0093216,8.62351113 C3.0093216,9.10823408 3.05592957,9.50906266 3.63386846,9.8166753 C4.03469705,10.0031072 4.94821336,10.5437597 4.94821336,11.5411704 C4.94821336,12.678405 4.27705852,13.0512688 3.68979803,13.2470223 L3.63386846,13.2749871 C3.06525117,13.6292077 3,14.2164682 3,14.4588296 L3,17.3764889 C3,18.31797 3.76437079,19.0823408 4.70585189,19.0823408 L19.2941481,19.0823408 C20.2356292,19.0823408 21,18.31797 21,17.3764889 L21,14.4588296 C21,13.8249612 20.8228897,13.5919213 20.3847747,13.2656655 C19.3780425,12.7529777 19.0611082,12.333506 19.0611082,11.5411704 C19.0517866,10.7488348 19.3593993,10.3666494 20.4034179,9.79803211 Z"/>
    <path fill="#333" fill-rule="nonzero" d="M15.1646815,11.2988089 C15.1646815,11.5691352 14.9502848,11.7835318 14.6799586,11.7835318 L12.7410668,11.7835318 L12.7410668,12.2682548 L14.6799586,12.2682548 C14.9502848,12.2682548 15.1646815,12.4919731 15.1646815,12.7529777 L15.1646815,13.2377007 C15.1646815,13.5080269 14.9502848,13.7317452 14.6799586,13.7317452 L12.7410668,13.7317452 L12.7410668,15.185914 C12.7410668,15.4562403 12.5266701,15.670637 12.2563439,15.670637 L11.7716209,15.670637 C11.5012947,15.670637 11.286898,15.4562403 11.286898,15.185914 L11.286898,13.7317452 L9.34800621,13.7317452 C9.07767996,13.7317452 8.86328327,13.5080269 8.86328327,13.2377007 L8.86328327,12.7529777 C8.86328327,12.4826515 9.07767996,12.2682548 9.34800621,12.2682548 L11.286898,12.2682548 L11.286898,11.7835318 L9.34800621,11.7835318 C9.07767996,11.7835318 8.86328327,11.5598136 8.86328327,11.2988089 L8.86328327,10.814086 C8.86328327,10.5437597 9.07767996,10.329363 9.34800621,10.329363 L10.6064215,10.329363 L8.9937856,8.58622475 C8.82599689,8.39979285 8.82599689,8.10150181 8.9937856,7.91506991 L9.30139824,7.57949249 C9.46918695,7.39306059 9.80476437,7.39306059 9.97255308,7.57949249 L12.0046608,9.76074573 L14.0367685,7.57949249 C14.2045572,7.39306059 14.5401346,7.39306059 14.7079234,7.57949249 L15.0248576,7.91506991 C15.1926463,8.10150181 15.1926463,8.39979285 15.0248576,8.58622475 L13.4029001,10.3200414 L14.6799586,10.3200414 C14.9502848,10.3200414 15.1646815,10.5437597 15.1646815,10.8047644 L15.1646815,11.2988089 L15.1646815,11.2988089 Z"/>
  </g>
</svg>
