<svg xmlns="http://www.w3.org/2000/svg" width="24" height="24" viewBox="0 0 24 24">
  <g fill="none" fill-rule="evenodd">
    <path stroke="#333" d="M20.7321031,8.24873335 C20.6360437,8.13172453 20.4141004,7.85387018 20.1209984,7.48834236 C19.2389956,6.38706924 17.7632937,4.5446627 17.0842607,3.76268593 C16.803421,3.43913228 16.4536494,3.03668581 15.7781915,3.00774958 C15.7287663,3.00598679 15.5788597,3 13.6831683,3 C11.5273984,3 8.48244403,3.00761656 8.48401209,3.00761656 C8.16190106,3.00761656 7.67043946,3.08561134 7.12823544,3.76255289 C6.73104566,4.25989024 6.11404512,5.02091317 5.48958061,5.7900183 C4.6936957,6.77132246 3.88652077,7.76706148 3.50705007,8.24903269 C2.84670833,9.06742919 2.83055731,10.2047229 3.46323846,11.2224468 L3.50526248,11.281949 C4.25247478,12.2117999 5.87780108,14.2077015 7.79682516,16.564907 L10.7805311,20.230396 C11.3317045,20.9087012 11.7668099,21 12.1199059,21 C12.4906895,21 12.909644,20.906506 13.4590297,20.2309281 L16.545475,16.4385853 C18.3606935,14.2093645 19.8983965,12.3213252 20.740696,11.2738003 C21.3032849,10.5488978 21.4634466,9.19105674 20.7321031,8.24873335 Z"/>
    <path fill="#333" d="M17.4071244,10.2064857 L17.368456,10.2064857 C17.0478817,10.2064857 16.9284895,10.2964541 16.7954866,10.485737 C16.782409,10.5042296 16.7677947,10.5256823 16.7488525,10.5502615 C16.1079861,11.4776511 13.9530002,14.2968717 12.7396662,15.940483 C12.5892149,16.1436194 12.3591409,16.2622354 12.115578,16.2622354 C11.8720151,16.2622354 11.6419411,16.1436194 11.4914898,15.940483 C10.2779363,14.2974371 8.12320132,11.4833718 7.49052017,10.5649624 C7.46028796,10.524618 7.44488962,10.503265 7.43209424,10.4841072 C7.29962447,10.295922 7.18048321,10.2063527 6.85862307,10.2063527 L6.81788485,10.2063527 C6.81788485,9.74177646 7.17305061,9.36513978 7.61119814,9.36513978 L8.5216142,9.36513978 C8.57210575,9.36513978 8.58236087,9.36513978 8.61873988,9.42507438 L11.4812347,13.3598699 C11.6312934,13.56551 11.8625859,13.6859973 12.1077691,13.6862507 C12.3529317,13.6863793 12.5843816,13.5663056 12.7347738,13.3609675 L15.6023806,9.43881077 C15.647478,9.36450785 15.662061,9.36450785 15.7097614,9.36450783 L16.6140306,9.36450783 C17.0519586,9.36450783 17.407093,9.7411445 17.407093,10.2057207 L17.407093,10.2064857 L17.4071244,10.2064857 Z"/>
  </g>
</svg>
